# xmcd CD database file
#
# Track frame offsets:
#	150
#	13830
#	23794
#	36596
#	46838
#	56013
#	66664
#	79064
#	87691
#	99529
#	109656
#	122613
#
# Disc length: 1783 seconds
#
# Revision: 2
# Processed by: cddbd v1.5.2PL0 Copyright (c) Steve Scherf et al.
# Submitted via: CDex 1.60beta1
#
DISCID=a506f50c
DTITLE=Various Artist - Bid Bad Country
DYEAR=1900
DGENRE=Country
TTITLE0=Glen Campbell - Rhinestone Cowboy
TTITLE1=Patsy Cline - Three Cigarettes in an Ashtray
TTITLE2=Dottie West - I fall to pieces
TTITLE3=Billie Jo Spears - It makes no difference now
TTITLE4=Faron Young - Hello Walls
TTITLE5=Lynn Anderson - Someday soon
TTITLE6=Bobby Bare - When love is gone
TTITLE7=Waylon Jennings - Love´s gonna live here again
TTITLE8=Diana Trask - It´s man´s world
TTITLE9=Johnny Paycheck - A-11
TTITLE10=Gene Autry - Let me cry on your shoulder
TTITLE11=Johnny Horton - All for the love of a girl
EXTD=
EXTT0=
EXTT1=
EXTT2=
EXTT3=
EXTT4=
EXTT5=
EXTT6=
EXTT7=
EXTT8=
EXTT9=
EXTT10=
EXTT11=
PLAYORDER=
